<svg xmlns="http://www.w3.org/2000/svg" viewBox="0 0 709.54 305.26"><defs><style>.cls-1{fill:#5821f1;}</style></defs><g id="Layer_2" data-name="Layer 2"><g id="Layer_1-2" data-name="Layer 1"><line class="cls-1" x1="594.53" y1="76.31" x2="486.21" y2="76.31"/><polygon class="cls-1" points="665.99 305.26 558.05 305.26 406.48 153.69 514.41 153.69 665.99 305.26"/><path class="cls-1" d="M709.54,115A114.93,114.93,0,0,1,629,224.74l-71-71.05h36.56a38.69,38.69,0,1,0,0-77.38H480.59L404.28,0H594.53a114.92,114.92,0,0,1,115,115Z"/><polygon class="cls-1" points="379.9 0 379.9 305.26 150.96 305.26 227.27 228.94 303.58 228.94 303.58 109.62 107.94 305.26 0 305.26 303.58 1.68 305.26 0 379.9 0"/></g></g></svg>